<svg width="48" height="48" viewBox="0 0 48 48" fill="none" xmlns="http://www.w3.org/2000/svg">
<circle cx="24" cy="24" r="24" fill="#E2E5EB"/>
<path d="M24.288 18.192C23.584 18.192 23.072 18.344 22.752 18.648C22.448 18.936 22.264 19.48 22.2 20.28H18.048C18.096 19.304 18.272 18.48 18.576 17.808C18.88 17.12 19.296 16.576 19.824 16.176C20.368 15.76 21.016 15.464 21.768 15.288C22.52 15.096 23.36 15 24.288 15C25.28 15 26.152 15.088 26.904 15.264C27.672 15.44 28.312 15.728 28.824 16.128C29.352 16.528 29.752 17.048 30.024 17.688C30.296 18.328 30.432 19.104 30.432 20.016C30.432 20.976 30.24 21.776 29.856 22.416C29.488 23.04 29.024 23.576 28.464 24.024C27.904 24.456 27.288 24.832 26.616 25.152C25.944 25.456 25.312 25.76 24.72 26.064C24.144 26.368 23.64 26.704 23.208 27.072C22.792 27.424 22.544 27.872 22.464 28.416H30.432V31.872H18V29.88C18 28.696 18.2 27.72 18.6 26.952C19.016 26.168 19.528 25.52 20.136 25.008C20.76 24.496 21.432 24.08 22.152 23.76C22.872 23.424 23.536 23.112 24.144 22.824C24.768 22.52 25.28 22.192 25.68 21.84C26.096 21.472 26.304 21 26.304 20.424V19.896C26.304 19.288 26.136 18.856 25.8 18.6C25.48 18.328 24.976 18.192 24.288 18.192Z" fill="black"/>
</svg>
