<svg width="48" height="48" viewBox="0 0 48 48" fill="none" xmlns="http://www.w3.org/2000/svg">
<circle cx="24" cy="24" r="24" fill="#E2E5EB"/>
<path d="M24.0366 29.1201C24.8206 29.1201 25.4046 28.9921 25.7886 28.7361C26.1886 28.4641 26.3886 27.9921 26.3886 27.3201V26.7441C26.3886 26.1361 26.1966 25.6961 25.8126 25.4241C25.4286 25.1361 24.8526 24.9921 24.0846 24.9921H22.5726V21.9441H24.0846C24.6606 21.9441 25.0926 21.8081 25.3806 21.5361C25.6686 21.2481 25.8126 20.8481 25.8126 20.3361V19.8081C25.8126 18.8161 25.2206 18.3201 24.0366 18.3201C23.4606 18.3201 22.9966 18.4401 22.6446 18.6801C22.2926 18.9041 22.0926 19.3841 22.0446 20.1201H17.8206C17.8366 19.1761 17.9966 18.3841 18.3006 17.7441C18.6206 17.1041 19.0526 16.5921 19.5966 16.2081C20.1566 15.8241 20.8046 15.5521 21.5406 15.3921C22.2926 15.2161 23.1086 15.1281 23.9886 15.1281C25.8126 15.1281 27.2526 15.4881 28.3086 16.2081C29.3806 16.9281 29.9166 18.0161 29.9166 19.4721C29.9166 20.3841 29.6846 21.1681 29.2206 21.8241C28.7726 22.4641 28.0526 22.9361 27.0606 23.2401C28.1806 23.4961 29.0286 23.9521 29.6046 24.6081C30.1966 25.2481 30.4926 26.1041 30.4926 27.1761C30.4926 28.8241 29.9646 30.0961 28.9086 30.9921C27.8526 31.8881 26.2286 32.3361 24.0366 32.3361C22.9966 32.3361 22.0606 32.2401 21.2286 32.0481C20.4126 31.8721 19.7166 31.5761 19.1406 31.1601C18.5806 30.7441 18.1486 30.2081 17.8446 29.5521C17.5406 28.8801 17.3806 28.0641 17.3646 27.1041H21.6126C21.6446 27.8241 21.8526 28.3441 22.2366 28.6641C22.6366 28.9681 23.2366 29.1201 24.0366 29.1201Z" fill="black"/>
</svg>
